<svg width="146" height="28" viewBox="0 0 146 28" fill="none" xmlns="http://www.w3.org/2000/svg">
<g filter="url(#filter0_i_152_170)">
<path d="M0.178123 1.25V0.125H17.0531V1.25H0.178123ZM0.178123 3.5V2.375H17.0531V3.5H0.178123ZM0.178123 5.75V4.625H17.0531V5.75H12.5531V26H11.4281V5.75H10.3031V26H9.17812V5.75H8.05312V26H6.92812V5.75H5.80312V26H4.67812V5.75H0.178123ZM22.0406 26H20.9156V3.5H22.0406V26ZM19.7906 26H18.6656V3.5H19.7906V26ZM17.5406 26H16.4156V3.5H17.5406V26ZM24.2906 20.375H35.0562V21.5H24.2906V22.625H35.0562V23.75H24.2906V24.875H35.0562V26H23.1656V3.5H35.0562V4.625H24.2906V5.75H35.0562V6.875H24.2906V8H35.0562V9.125H24.2906V11.9219H34.4312V13.0469H24.2906V14.1719H34.4312V15.2969H24.2906V16.4219H34.4312V17.5469H24.2906V20.375ZM50.5281 14.9062C50.5281 13.5729 50.1167 12.5417 49.2937 11.8125C48.4708 11.0833 47.3823 10.7188 46.0281 10.7188C44.8823 10.7188 43.8979 11.1146 43.075 11.9062C42.2521 12.6979 41.8406 13.6458 41.8406 14.75C41.8406 15.375 41.924 15.9375 42.0906 16.4375C42.2573 16.9271 42.4812 17.3385 42.7625 17.6719C43.0542 17.9948 43.3979 18.2656 43.7937 18.4844C44.1896 18.6927 44.601 18.8438 45.0281 18.9375C45.4656 19.0312 45.9292 19.0781 46.4187 19.0781C47.6062 19.0781 48.6896 18.7865 49.6687 18.2031V19.3281C48.6583 19.8594 47.5698 20.125 46.4031 20.125C45.6531 20.125 44.9448 20.026 44.2781 19.8281C43.6219 19.6198 43.0229 19.3125 42.4812 18.9062C41.9396 18.4896 41.5073 17.9271 41.1844 17.2188C40.8719 16.5 40.7156 15.6771 40.7156 14.75C40.7156 13.3125 41.2208 12.0938 42.2312 11.0938C43.2417 10.0938 44.5073 9.59375 46.0281 9.59375C47.7052 9.59375 49.0594 10.0677 50.0906 11.0156C51.1323 11.9531 51.6531 13.25 51.6531 14.9062V26H50.5281V14.9062ZM53.9031 14.9062V26H52.7781V14.9062C52.7781 12.9375 52.1479 11.375 50.8875 10.2188C49.6271 9.05208 48.0073 8.46875 46.0281 8.46875C44.1948 8.46875 42.6635 9.07812 41.4344 10.2969C40.2052 11.5156 39.5906 13 39.5906 14.75C39.5906 15.8125 39.7729 16.7656 40.1375 17.6094C40.5125 18.4531 41.0177 19.1302 41.6531 19.6406C42.2885 20.151 42.9969 20.5417 43.7781 20.8125C44.5698 21.0729 45.4031 21.2031 46.2781 21.2031C47.4656 21.2031 48.5958 20.9271 49.6687 20.375V21.5625C48.5437 22.0312 47.4083 22.2656 46.2625 22.2656C45.2312 22.2656 44.2521 22.1094 43.325 21.7969C42.3979 21.474 41.5698 21.0104 40.8406 20.4062C40.1115 19.7917 39.5333 19 39.1062 18.0312C38.6792 17.0521 38.4656 15.9583 38.4656 14.75C38.4656 12.6979 39.1896 10.9531 40.6375 9.51562C42.0958 8.06771 43.8927 7.34375 46.0281 7.34375C47.5281 7.34375 48.8719 7.65104 50.0594 8.26562C51.2469 8.86979 52.1844 9.75 52.8719 10.9062C53.5594 12.0625 53.9031 13.3958 53.9031 14.9062ZM56.1531 14.9062V26H55.0281V14.9062C55.0281 13.1875 54.6323 11.6667 53.8406 10.3438C53.0594 9.01042 51.9865 7.98958 50.6219 7.28125C49.2573 6.57292 47.726 6.21875 46.0281 6.21875C44.4135 6.21875 42.9396 6.60417 41.6062 7.375C40.2729 8.13542 39.226 9.16667 38.4656 10.4688C37.7156 11.7708 37.3406 13.1979 37.3406 14.75C37.3406 16.0833 37.5854 17.3021 38.075 18.4062C38.5646 19.5 39.2208 20.401 40.0437 21.1094C40.8771 21.8177 41.8198 22.3698 42.8719 22.7656C43.9344 23.151 45.0437 23.3438 46.2 23.3438C47.3771 23.3438 48.5333 23.099 49.6687 22.6094V23.75C48.4812 24.1979 47.3146 24.4219 46.1687 24.4219C44.3667 24.4219 42.7104 24.0156 41.2 23.2031C39.6896 22.3906 38.4812 21.2396 37.575 19.75C36.6687 18.2604 36.2156 16.5938 36.2156 14.75C36.2156 13.4375 36.4656 12.1875 36.9656 11C37.476 9.8125 38.1635 8.78646 39.0281 7.92188C39.8927 7.05729 40.9344 6.36979 42.1531 5.85938C43.3719 5.34896 44.6635 5.09375 46.0281 5.09375C47.9344 5.09375 49.6531 5.5 51.1844 6.3125C52.726 7.125 53.9396 8.28125 54.825 9.78125C55.7104 11.2812 56.1531 12.9896 56.1531 14.9062ZM58.4031 14.9062V26H57.2781V14.9062C57.2781 12.7812 56.7833 10.8854 55.7937 9.21875C54.8042 7.54167 53.4552 6.25 51.7469 5.34375C50.0385 4.42708 48.1323 3.96875 46.0281 3.96875C44.0073 3.96875 42.1583 4.45312 40.4812 5.42188C38.8042 6.39062 37.4865 7.70312 36.5281 9.35938C35.5698 11.0052 35.0906 12.8021 35.0906 14.75C35.0906 16.0312 35.2937 17.25 35.7 18.4062C36.1167 19.5521 36.6792 20.5573 37.3875 21.4219C38.1062 22.276 38.9292 23.0156 39.8562 23.6406C40.7937 24.2656 41.799 24.7396 42.8719 25.0625C43.9552 25.3854 45.0542 25.5469 46.1687 25.5469C47.3979 25.5469 48.5646 25.3125 49.6687 24.8438V26C48.5125 26.4062 47.325 26.6094 46.1062 26.6094C44.8458 26.6094 43.6167 26.4323 42.4187 26.0781C41.2312 25.724 40.1271 25.2031 39.1062 24.5156C38.0958 23.8177 37.2052 23 36.4344 22.0625C35.6635 21.1146 35.0594 20.0104 34.6219 18.75C34.1844 17.4896 33.9656 16.1562 33.9656 14.75C33.9656 13.1354 34.2677 11.599 34.8719 10.1406C35.4865 8.67188 36.3198 7.40625 37.3719 6.34375C38.4344 5.27083 39.7156 4.42188 41.2156 3.79688C42.726 3.16146 44.3302 2.84375 46.0281 2.84375C47.7573 2.84375 49.3823 3.13542 50.9031 3.71875C52.424 4.30208 53.7365 5.11458 54.8406 6.15625C55.9448 7.1875 56.8146 8.45833 57.45 9.96875C58.0854 11.4792 58.4031 13.125 58.4031 14.9062ZM72.3594 11.9375V26H71.2344V11.9375C71.2344 11.6354 71.1823 11.3802 71.0781 11.1719C70.9844 10.9531 70.8594 10.7865 70.7031 10.6719C70.5469 10.5573 70.3385 10.4688 70.0781 10.4062C69.8281 10.3333 69.5833 10.2917 69.3438 10.2812C69.1042 10.2604 68.8073 10.25 68.4531 10.25C68.099 10.25 67.8021 10.2604 67.5625 10.2812C67.3229 10.2917 67.0729 10.3333 66.8125 10.4062C66.5625 10.4688 66.3594 10.5573 66.2031 10.6719C66.0469 10.7865 65.9167 10.9531 65.8125 11.1719C65.7188 11.3802 65.6719 11.6354 65.6719 11.9375V26H64.5469V11.9375C64.5469 10.0625 65.849 9.125 68.4531 9.125C71.0573 9.125 72.3594 10.0625 72.3594 11.9375ZM74.6094 11.9375V26H73.4844V11.9375C73.4844 10.6146 73.0156 9.63021 72.0781 8.98438C71.151 8.32812 69.9427 8 68.4531 8C66.9635 8 65.75 8.32812 64.8125 8.98438C63.8854 9.63021 63.4219 10.6146 63.4219 11.9375V26H62.2969V11.9375C62.2969 10.8438 62.5781 9.90625 63.1406 9.125C63.7031 8.34375 64.4375 7.77604 65.3438 7.42188C66.2604 7.05729 67.2969 6.875 68.4531 6.875C69.6094 6.875 70.6406 7.05729 71.5469 7.42188C72.4635 7.77604 73.2031 8.34375 73.7656 9.125C74.3281 9.90625 74.6094 10.8438 74.6094 11.9375ZM76.8594 11.9375V26H75.7344V11.9375C75.7344 10.9583 75.5417 10.0729 75.1562 9.28125C74.7812 8.48958 74.2604 7.83854 73.5938 7.32812C72.9271 6.81771 72.1562 6.42708 71.2812 6.15625C70.4062 5.88542 69.4635 5.75 68.4531 5.75C67.4427 5.75 66.5 5.88542 65.625 6.15625C64.75 6.42708 63.9792 6.81771 63.3125 7.32812C62.6458 7.83854 62.1198 8.48958 61.7344 9.28125C61.3594 10.0729 61.1719 10.9583 61.1719 11.9375V26H60.0469V11.9375C60.0469 10.8021 60.2656 9.77083 60.7031 8.84375C61.151 7.91667 61.7552 7.15104 62.5156 6.54688C63.276 5.93229 64.1667 5.45833 65.1875 5.125C66.2083 4.79167 67.2969 4.625 68.4531 4.625C69.6094 4.625 70.6979 4.79167 71.7188 5.125C72.7396 5.45833 73.6302 5.93229 74.3906 6.54688C75.151 7.15104 75.75 7.91667 76.1875 8.84375C76.6354 9.77083 76.8594 10.8021 76.8594 11.9375ZM79.1094 26H77.9844V11.9375C77.9844 10.8021 77.7292 9.71354 77.2188 8.67188C76.7188 7.63021 76.0417 6.73438 75.1875 5.98438C74.3333 5.22396 73.3177 4.61979 72.1406 4.17188C70.9635 3.72396 69.7344 3.5 68.4531 3.5C66.6927 3.5 65.0938 3.83333 63.6562 4.5C62.2292 5.15625 61.0833 6.13542 60.2188 7.4375C59.3542 8.72917 58.9219 10.2292 58.9219 11.9375V26H57.7969V11.9375C57.7969 10.5 58.0781 9.17708 58.6406 7.96875C59.2031 6.76042 59.9635 5.75 60.9219 4.9375C61.8906 4.125 63.0208 3.49479 64.3125 3.04688C65.6146 2.59896 66.9948 2.375 68.4531 2.375C71.0365 2.375 73.276 3.02604 75.1719 4.32812C77.0677 3.02604 79.3073 2.375 81.8906 2.375C83.349 2.375 84.724 2.59896 86.0156 3.04688C87.3177 3.49479 88.4479 4.125 89.4062 4.9375C90.375 5.75 91.1406 6.76042 91.7031 7.96875C92.2656 9.17708 92.5469 10.5 92.5469 11.9375V26H91.4219V11.9375C91.4219 10.2396 90.9896 8.74479 90.125 7.45312C89.2604 6.15104 88.1094 5.16667 86.6719 4.5C85.2448 3.83333 83.651 3.5 81.8906 3.5C79.6823 3.5 77.7552 4.02083 76.1094 5.0625C76.349 5.27083 76.6146 5.54167 76.9062 5.875C78.3333 5.04167 79.9948 4.625 81.8906 4.625C83.0469 4.625 84.1354 4.79167 85.1562 5.125C86.1771 5.45833 87.0677 5.93229 87.8281 6.54688C88.5885 7.15104 89.1875 7.91667 89.625 8.84375C90.0729 9.77083 90.2969 10.8021 90.2969 11.9375V26H89.1719V11.9375C89.1719 10.9583 88.9792 10.0729 88.5938 9.28125C88.2188 8.48958 87.6979 7.83854 87.0312 7.32812C86.3646 6.81771 85.5938 6.42708 84.7188 6.15625C83.8438 5.88542 82.901 5.75 81.8906 5.75C80.2344 5.75 78.8021 6.08854 77.5938 6.76562C77.7812 7.05729 77.9688 7.38021 78.1562 7.73438C79.1771 7.16146 80.4219 6.875 81.8906 6.875C83.0469 6.875 84.0781 7.05729 84.9844 7.42188C85.901 7.77604 86.6406 8.34375 87.2031 9.125C87.7656 9.90625 88.0469 10.8438 88.0469 11.9375V26H86.9219V11.9375C86.9219 10.6146 86.4531 9.63021 85.5156 8.98438C84.5885 8.32812 83.3802 8 81.8906 8C80.5365 8 79.4375 8.25 78.5938 8.75C78.7292 9.14583 78.8333 9.52083 78.9062 9.875C79.5625 9.375 80.5573 9.125 81.8906 9.125C84.4948 9.125 85.7969 10.0625 85.7969 11.9375V26H84.6719V11.9375C84.6719 11.6354 84.6198 11.3802 84.5156 11.1719C84.4219 10.9531 84.2969 10.7865 84.1406 10.6719C83.9844 10.5573 83.776 10.4688 83.5156 10.4062C83.2656 10.3333 83.0208 10.2917 82.7812 10.2812C82.5417 10.2604 82.2448 10.25 81.8906 10.25C81.5365 10.25 81.2396 10.2604 81 10.2812C80.7604 10.2917 80.5104 10.3333 80.25 10.4062C80 10.4688 79.7969 10.5573 79.6406 10.6719C79.4844 10.7865 79.3542 10.9531 79.25 11.1719C79.1562 11.3802 79.1094 11.6354 79.1094 11.9375V26ZM98.9094 3.5H100.034V26H98.9094V3.5ZM96.6594 3.5H97.7844V26H96.6594V3.5ZM94.4094 3.5H95.5344V26H94.4094V3.5ZM92.1594 3.5H93.2844V26H92.1594V3.5ZM117.522 16.9219L116.397 14.875V3.5H117.522V16.9219ZM119.772 20.8125L118.647 18.9062V3.5H119.772V20.8125ZM104.272 12.5781L105.397 14.625V26H104.272V12.5781ZM102.022 8.53125L103.147 10.5938V26H102.022V8.53125ZM102.412 3.5H103.725L116.756 26H115.444L102.412 3.5ZM105.069 3.5H106.397L119.412 26H118.069L105.069 3.5ZM107.709 3.5H109.022L120.897 24.0469V3.5H122.022V26H120.694L107.709 3.5ZM100.897 5.4375V26H99.7719V3.5H101.116L114.1 26H112.803L100.897 5.4375ZM137.588 14.5938H138.713V26C137.046 26.75 135.322 27.125 133.541 27.125C131.864 27.125 130.259 26.7969 128.728 26.1406C127.207 25.4844 125.895 24.6042 124.791 23.5C123.686 22.3958 122.806 21.0833 122.15 19.5625C121.494 18.0312 121.166 16.4271 121.166 14.75C121.166 13.0729 121.494 11.474 122.15 9.95312C122.806 8.42188 123.686 7.10417 124.791 6C125.895 4.89583 127.207 4.01562 128.728 3.35938C130.259 2.70312 131.864 2.375 133.541 2.375C135.457 2.375 137.259 2.79167 138.947 3.625C140.634 4.44792 142.056 5.58333 143.213 7.03125L142.306 7.70312C141.254 6.40104 139.963 5.375 138.431 4.625C136.91 3.875 135.28 3.5 133.541 3.5C132.02 3.5 130.561 3.79688 129.166 4.39062C127.78 4.98438 126.582 5.78646 125.572 6.79688C124.572 7.79688 123.775 8.99479 123.181 10.3906C122.588 11.776 122.291 13.2292 122.291 14.75C122.291 16.2708 122.588 17.7292 123.181 19.125C123.775 20.5104 124.572 21.7083 125.572 22.7188C126.582 23.7188 127.78 24.5156 129.166 25.1094C130.561 25.7031 132.02 26 133.541 26C134.947 26 136.296 25.75 137.588 25.25V24.0938C136.285 24.6146 134.936 24.875 133.541 24.875C132.166 24.875 130.853 24.6094 129.603 24.0781C128.353 23.5365 127.275 22.8177 126.369 21.9219C125.473 21.0156 124.754 19.9375 124.213 18.6875C123.681 17.4375 123.416 16.125 123.416 14.75C123.416 13.375 123.681 12.0625 124.213 10.8125C124.754 9.5625 125.473 8.48958 126.369 7.59375C127.275 6.6875 128.353 5.96875 129.603 5.4375C130.853 4.89583 132.166 4.625 133.541 4.625C135.114 4.625 136.588 4.96354 137.963 5.64062C139.348 6.31771 140.515 7.25 141.463 8.4375L140.588 9.14062C139.744 8.08854 138.707 7.26042 137.478 6.65625C136.249 6.05208 134.936 5.75 133.541 5.75C132.322 5.75 131.155 5.98958 130.041 6.46875C128.936 6.9375 127.978 7.57812 127.166 8.39062C126.364 9.19271 125.723 10.151 125.244 11.2656C124.775 12.3698 124.541 13.5312 124.541 14.75C124.541 15.9688 124.775 17.1354 125.244 18.25C125.723 19.3542 126.364 20.3125 127.166 21.125C127.978 21.9271 128.936 22.5677 130.041 23.0469C131.155 23.5156 132.322 23.75 133.541 23.75C134.978 23.75 136.327 23.4583 137.588 22.875V21.7188C136.327 22.3229 134.978 22.625 133.541 22.625C132.114 22.625 130.796 22.276 129.588 21.5781C128.379 20.8698 127.421 19.9115 126.713 18.7031C126.015 17.4948 125.666 16.1771 125.666 14.75C125.666 13.3229 126.015 12.0052 126.713 10.7969C127.421 9.58854 128.379 8.63542 129.588 7.9375C130.796 7.22917 132.114 6.875 133.541 6.875C134.759 6.875 135.905 7.14062 136.978 7.67188C138.061 8.19271 138.968 8.91667 139.697 9.84375L138.806 10.5312C138.181 9.73958 137.405 9.11979 136.478 8.67188C135.561 8.22396 134.582 8 133.541 8C131.676 8 130.082 8.66146 128.759 9.98438C127.447 11.3073 126.791 12.8958 126.791 14.75C126.791 16.6042 127.447 18.1927 128.759 19.5156C130.082 20.8385 131.676 21.5 133.541 21.5C134.999 21.5 136.348 21.1458 137.588 20.4375V19.2969C136.369 20.0156 135.02 20.375 133.541 20.375C131.989 20.375 130.66 19.8281 129.556 18.7344C128.463 17.6302 127.916 16.3021 127.916 14.75C127.916 13.1979 128.463 11.875 129.556 10.7812C130.66 9.67708 131.989 9.125 133.541 9.125C134.416 9.125 135.239 9.31771 136.009 9.70312C136.78 10.0781 137.426 10.5938 137.947 11.25L137.041 11.9375C136.134 10.8125 134.968 10.25 133.541 10.25C132.301 10.25 131.239 10.6927 130.353 11.5781C129.478 12.4531 129.041 13.5104 129.041 14.75C129.041 15.9896 129.478 17.0521 130.353 17.9375C131.239 18.8125 132.301 19.25 133.541 19.25C135.134 19.25 136.483 18.8073 137.588 17.9219V14.5938ZM144.338 14.5938H145.463V26H144.338V14.5938ZM142.088 14.5938H143.213V26H142.088V14.5938ZM139.838 14.5938H140.963V26H139.838V14.5938Z" fill="#0066FF" fill-opacity="0.7"/>
</g>
<defs>
<filter id="filter0_i_152_170" x="0.178223" y="0.125" width="145.284" height="31" filterUnits="userSpaceOnUse" color-interpolation-filters="sRGB">
<feFlood flood-opacity="0" result="BackgroundImageFix"/>
<feBlend mode="normal" in="SourceGraphic" in2="BackgroundImageFix" result="shape"/>
<feColorMatrix in="SourceAlpha" type="matrix" values="0 0 0 0 0 0 0 0 0 0 0 0 0 0 0 0 0 0 127 0" result="hardAlpha"/>
<feOffset dy="4"/>
<feGaussianBlur stdDeviation="2"/>
<feComposite in2="hardAlpha" operator="arithmetic" k2="-1" k3="1"/>
<feColorMatrix type="matrix" values="0 0 0 0 0 0 0 0 0 0 0 0 0 0 0 0 0 0 0.25 0"/>
<feBlend mode="normal" in2="shape" result="effect1_innerShadow_152_170"/>
</filter>
</defs>
</svg>
