<svg width="529" height="90" viewBox="0 0 529 90" fill="none" xmlns="http://www.w3.org/2000/svg">
<rect width="529" height="90" rx="12" fill="#FEE500" fill-opacity="0.85"/>
<path d="M180.174 36.504H182.442C182.442 43.812 179.978 50.532 170.906 55.04L169.646 53.248C177.654 49.3 180.174 43.644 180.174 36.756V36.504ZM171.018 36.504H181.546V38.38H171.018V36.504ZM179.81 42.776V44.568L170.122 45.52L169.758 43.448L179.81 42.776ZM186.53 33.844H188.882V59.184H186.53V33.844ZM188.238 44.12H192.914V46.052H188.238V44.12ZM205.932 36.504H208.2C208.2 43.812 205.736 50.532 196.664 55.04L195.404 53.248C203.412 49.3 205.932 43.644 205.932 36.756V36.504ZM196.776 36.504H207.304V38.38H196.776V36.504ZM205.568 42.776V44.568L195.88 45.52L195.516 43.448L205.568 42.776ZM212.288 33.844H214.64V59.184H212.288V33.844ZM213.996 44.12H218.672V46.052H213.996V44.12ZM231.186 48.18H233.51V54.48H231.186V48.18ZM232.362 35.524C237.71 35.524 241.546 38.128 241.546 42.16C241.546 46.192 237.71 48.796 232.362 48.796C227.014 48.796 223.15 46.192 223.15 42.16C223.15 38.128 227.014 35.524 232.362 35.524ZM232.362 37.372C228.33 37.372 225.39 39.276 225.39 42.16C225.39 45.044 228.33 46.948 232.362 46.948C236.366 46.948 239.306 45.044 239.306 42.16C239.306 39.276 236.366 37.372 232.362 37.372ZM220.938 54.032H243.87V55.964H220.938V54.032ZM246.696 54.144H269.628V56.076H246.696V54.144ZM256.944 48.712H259.268V54.956H256.944V48.712ZM249.468 35.748H266.8V43.42H251.848V48.488H249.552V41.544H264.504V37.624H249.468V35.748ZM249.552 47.508H267.388V49.412H249.552V47.508ZM285.379 36.056H287.283V40.592C287.283 46.416 284.147 51.82 280.003 53.92L278.575 52.016C282.327 50.224 285.379 45.38 285.379 40.592V36.056ZM285.771 36.056H287.675V40.592C287.675 45.212 290.699 49.86 294.451 51.596L293.051 53.444C288.935 51.428 285.771 46.22 285.771 40.592V36.056ZM297.083 33.844H299.407V59.212H297.083V33.844ZM310.689 36.476H312.593V38.52C312.593 43.168 309.793 47.032 305.565 48.544L304.333 46.724C308.169 45.38 310.689 42.132 310.689 38.52V36.476ZM311.109 36.476H313.013V38.492C313.013 41.852 315.449 44.96 319.173 46.22L317.969 48.04C313.797 46.584 311.109 42.86 311.109 38.492V36.476ZM305.061 35.636H318.585V37.54H305.061V35.636ZM321.777 33.872H324.101V49.104H321.777V33.872ZM323.457 40.536H327.853V42.468H323.457V40.536ZM307.665 50.448H324.101V59.184H321.777V52.38H307.665V50.448ZM347.367 33.872H349.691V59.184H347.367V33.872ZM349.131 44.26H353.835V46.22H349.131V44.26ZM330.091 37.904H345.015V39.808H330.091V37.904ZM337.651 41.908C341.235 41.908 343.811 44.316 343.811 47.732C343.811 51.148 341.235 53.556 337.651 53.556C334.095 53.556 331.491 51.148 331.491 47.732C331.491 44.316 334.095 41.908 337.651 41.908ZM337.651 43.84C335.355 43.84 333.703 45.436 333.703 47.732C333.703 50 335.355 51.624 337.651 51.624C339.947 51.624 341.599 50 341.599 47.732C341.599 45.436 339.947 43.84 337.651 43.84ZM336.447 34.18H338.771V38.772H336.447V34.18ZM374.413 33.872H376.737V59.184H374.413V33.872ZM366.993 36.588H369.289C369.289 43.924 365.985 50.336 357.529 54.48L356.297 52.604C363.605 49.076 366.993 43.7 366.993 36.98V36.588ZM357.445 36.588H368.001V38.492H357.445V36.588Z" fill="black" fill-opacity="0.85"/>
<g clip-path="url(#clip0_53_45)">
<path fill-rule="evenodd" clip-rule="evenodd" d="M47 28.2C37.0583 28.2 29 34.4259 29 42.1046C29 46.8801 32.1168 51.09 36.863 53.5939L34.8661 60.889C34.6896 61.5336 35.4268 62.0474 35.9929 61.6739L44.7467 55.8964C45.4854 55.9677 46.2362 56.0093 47 56.0093C56.9409 56.0093 64.9999 49.7836 64.9999 42.1046C64.9999 34.4259 56.9409 28.2 47 28.2" fill="black"/>
</g>
<defs>
<clipPath id="clip0_53_45">
<rect width="35.9999" height="36" fill="white" transform="translate(29 27)"/>
</clipPath>
</defs>
</svg>
