<svg width="529" height="90" viewBox="0 0 529 90" fill="none" xmlns="http://www.w3.org/2000/svg">
<rect width="529" height="90" rx="12" fill="#03C75A"/>
<path d="M170.28 36.588H172.576V51.428H170.28V36.588ZM170.28 50.756H171.904C174.844 50.756 177.588 50.616 180.78 49.972L181.088 51.96C177.784 52.632 174.956 52.772 171.904 52.772H170.28V50.756ZM188.34 33.872H190.58V59.184H188.34V33.872ZM177.308 42.356H183.636V44.288H177.308V42.356ZM182.992 34.46H185.176V57.896H182.992V34.46ZM213.202 33.844H215.526V59.212H213.202V33.844ZM202.17 35.804C205.922 35.804 208.61 39.248 208.61 44.624C208.61 50.028 205.922 53.472 202.17 53.472C198.446 53.472 195.758 50.028 195.758 44.624C195.758 39.248 198.446 35.804 202.17 35.804ZM202.17 37.904C199.706 37.904 197.97 40.536 197.97 44.624C197.97 48.74 199.706 51.428 202.17 51.428C204.662 51.428 206.37 48.74 206.37 44.624C206.37 40.536 204.662 37.904 202.17 37.904ZM239.127 33.844H241.423V59.212H239.127V33.844ZM232.435 43.252H239.799V45.156H232.435V43.252ZM221.599 35.86H223.895V42.44H230.923V35.86H233.219V52.856H221.599V35.86ZM223.895 44.288V50.924H230.923V44.288H223.895ZM246.349 54.144H269.281V56.076H246.349V54.144ZM256.597 48.712H258.921V54.956H256.597V48.712ZM249.121 35.748H266.453V43.42H251.501V48.488H249.205V41.544H264.157V37.624H249.121V35.748ZM249.205 47.508H267.041V49.412H249.205V47.508ZM285.033 36.056H286.937V40.592C286.937 46.416 283.801 51.82 279.657 53.92L278.229 52.016C281.981 50.224 285.033 45.38 285.033 40.592V36.056ZM285.425 36.056H287.329V40.592C287.329 45.212 290.353 49.86 294.105 51.596L292.705 53.444C288.589 51.428 285.425 46.22 285.425 40.592V36.056ZM296.737 33.844H299.061V59.212H296.737V33.844ZM310.343 36.476H312.247V38.52C312.247 43.168 309.447 47.032 305.219 48.544L303.987 46.724C307.823 45.38 310.343 42.132 310.343 38.52V36.476ZM310.763 36.476H312.667V38.492C312.667 41.852 315.103 44.96 318.827 46.22L317.623 48.04C313.451 46.584 310.763 42.86 310.763 38.492V36.476ZM304.715 35.636H318.239V37.54H304.715V35.636ZM321.431 33.872H323.755V49.104H321.431V33.872ZM323.111 40.536H327.507V42.468H323.111V40.536ZM307.319 50.448H323.755V59.184H321.431V52.38H307.319V50.448ZM347.02 33.872H349.344V59.184H347.02V33.872ZM348.784 44.26H353.488V46.22H348.784V44.26ZM329.744 37.904H344.668V39.808H329.744V37.904ZM337.304 41.908C340.888 41.908 343.464 44.316 343.464 47.732C343.464 51.148 340.888 53.556 337.304 53.556C333.748 53.556 331.144 51.148 331.144 47.732C331.144 44.316 333.748 41.908 337.304 41.908ZM337.304 43.84C335.008 43.84 333.356 45.436 333.356 47.732C333.356 50 335.008 51.624 337.304 51.624C339.6 51.624 341.252 50 341.252 47.732C341.252 45.436 339.6 43.84 337.304 43.84ZM336.1 34.18H338.424V38.772H336.1V34.18ZM374.066 33.872H376.39V59.184H374.066V33.872ZM366.646 36.588H368.942C368.942 43.924 365.638 50.336 357.182 54.48L355.95 52.604C363.258 49.076 366.646 43.7 366.646 36.98V36.588ZM357.098 36.588H367.654V38.492H357.098V36.588Z" fill="white" fill-opacity="0.85"/>
<path d="M53.4105 46.266L40.063 27H29V63H40.5895V43.731L53.937 63H65V27H53.4105V46.266Z" fill="white"/>
</svg>
